<?xml version="1.0" encoding="UTF-8"?>
<svg version="1.1" xmlns="http://www.w3.org/2000/svg" width="35" height="34">
<path d="M0 0 C11.55 0 23.1 0 35 0 C35 11.22 35 22.44 35 34 C23.45 34 11.9 34 0 34 C0 22.78 0 11.56 0 0 Z " fill="#256AC0" transform="translate(0,0)"/>
<path d="M0 0 C0.928125 0.0825 1.85625 0.165 2.8125 0.25 C1.57591941 3.67437702 0.45969559 6.69734711 -2.1875 9.25 C-5.375 9.5 -5.375 9.5 -8.1875 9.25 C-4.98850897 0.39125561 -4.98850897 0.39125561 0 0 Z " fill="#F6F9FC" transform="translate(16.1875,12.75)"/>
<path d="M0 0 C2.97 0.495 2.97 0.495 6 1 C6.33 1.99 6.66 2.98 7 4 C7.66 4.33 8.32 4.66 9 5 C8.67 5.66 8.34 6.32 8 7 C5.36 7 2.72 7 0 7 C0 4.69 0 2.38 0 0 Z " fill="#3170C2" transform="translate(7,21)"/>
<path d="M0 0 C1.4540625 0.0309375 1.4540625 0.0309375 2.9375 0.0625 C0.0625 4.9375 0.0625 4.9375 -1.0625 6.0625 C-3.06208364 6.10330783 -5.06295254 6.10504356 -7.0625 6.0625 C-3.52966102 0.0720339 -3.52966102 0.0720339 0 0 Z " fill="#EBF0F9" transform="translate(25.0625,12.9375)"/>
<path d="M0 0 C2.75 -0.3125 2.75 -0.3125 6 0 C10 4.10526316 10 4.10526316 10 6 C7.25 6.375 7.25 6.375 4 6 C1.625 3 1.625 3 0 0 Z " fill="#EEF2F9" transform="translate(18,6)"/>
<path d="M0 0 C-0.33 0.99 -0.66 1.98 -1 3 C-3.64 3 -6.28 3 -9 3 C-9 2.34 -9 1.68 -9 1 C-5.8035914 -0.06546953 -3.34252724 -0.07427838 0 0 Z " fill="#98B7E0" transform="translate(16,25)"/>
</svg>
