<svg width="390" height="495" viewBox="0 0 390 495" version="1.1" id="logo-ptpl-v"
  xmlns="http://www.w3.org/2000/svg">
  <defs id="defs-logo-ptpl-v" />
  <g id="g2048" transform="matrix(1,0,0,-1,0,425)">
    <g id="logo">
      <path d="M 336.61978,406.43862 C 329.07005,417.63441 316.22822,425 301.63448,425 H 205 l 53.34575,-81.43861 C 265.89384,332.38027 278.73237,325 293.33106,325 h 96.66893 z" style="fill:#e31837" id="shape-red" />
      <path d="M 258.40038,281.44644 C 265.92393,292.62285 278.78225,300 293.38108,300 h 96.61891 L 336.65543,218.57313 C 329.12695,207.37227 316.2637,200 301.66977,200 H 205 Z" style="fill:#b2bb1d" id="shape-green" />
      <path d="m 217.41602,279.27289 c 5.31079,7.98062 11.9357,14.98785 19.58399,20.72711 H 134.34277 c -14.60173,0 -27.46385,-7.37834 -34.992238,-18.55415 L 0,129.99999 h 96.73704 c 14.60008,0 27.4425,7.37671 34.9758,18.5769 z" style="fill:#0076c0" id="shape-blue" />
    </g>
    <text style="font-weight:bold;font-size:65.9273px;font-family:'Futura Md BT';fill:#000000" transform="scale(1.0204567,-0.97995335)" id="text-pertamina">
      <tspan x="-5.4080973 36.306343 73.612526 115.78754 149.52098 197.02544 257.88651 281.50714 337.56497" y="-32.512943" id="tspan-pertamina">PERTAMINA</tspan>
    </text>
    <text transform="scale(0.9649839,-1.0362867)" style="font-weight:normal;font-size:62.5803px;font-family:'Futura Bk BT';fill:#e31837" id="text-lubricants">
      <tspan x="-5.3779912 22.063431 67.121193 102.29124 135.77165 151.9799 197.35051 236.46313 284.9628 316.69095" y="65.807106" id="tspan-lubricants">LUBRICANTS</tspan>
    </text>
  </g>
</svg>
